<svg t="1567748497136" class="icon" viewBox="0 0 1024 1024" version="1.1" xmlns="http://www.w3.org/2000/svg" p-id="2890" width="32" height="32"><path d="M934.016 288q0-12-9.504-20t-22.496-8.992h-136.992q-20.992-83.008-86.496-135.008t-153.504-54.016h-19.008Q417.024 72 352 124T265.984 259.008H127.968q-15.008-2.016-23.488 6.016t-8.512 23.008l-28.992 556.992q6.016 51.008 40.992 82.496t84 32.512h650.016q48.992-0.992 83.488-33.504t37.504-81.504l-28.992-556.992z m-96 608H192q-22.016 0-38.496-15.008t-19.488-39.008l23.008-522.016h102.016v134.016q-14.016 8-23.008 23.008t-8.992 32q0.992 27.008 19.008 44.992t44.992 18.016 45.504-18.016 18.496-44.992q0-16.992-8.512-32t-23.488-23.008V313.984q2.016-79.008 54.016-130.016t128.992-52.992h19.008q78.016 2.016 128.992 54.016t52.992 128.992v144q-14.016 7.008-23.008 22.016t-8.992 32q0.992 27.008 19.008 44.992t44.992 18.016 45.504-18.016 18.496-44.992q0-16.992-8.512-32t-23.488-22.016V319.968h99.008l26.016 522.016q-0.992 24-16.992 39.008T838.08 896zM611.008 256h-192q-14.016 0-23.008 8.512T387.008 288t8.992 23.488 23.008 8.512h192q15.008 0 23.488-8.512T643.008 288t-8.512-23.488T611.008 256z" p-id="2891"></path></svg>