<svg xmlns="http://www.w3.org/2000/svg" width="16" height="12" viewBox="0 0 16 12">
  <metadata><?xpacket begin="﻿" id="W5M0MpCehiHzreSzNTczkc9d"?>
<x:xmpmeta xmlns:x="adobe:ns:meta/" x:xmptk="Adobe XMP Core 5.6-c138 79.159824, 2016/09/14-01:09:01        ">
   <rdf:RDF xmlns:rdf="http://www.w3.org/1999/02/22-rdf-syntax-ns#">
      <rdf:Description rdf:about=""/>
   </rdf:RDF>
</x:xmpmeta>
                                                                                                    
                                                                                                    
                                                                                                    
                                                                                                    
                                                                                                    
                                                                                                    
                                                                                                    
                                                                                                    
                                                                                                    
                                                                                                    
                                                                                                    
                                                                                                    
                                                                                                    
                                                                                                    
                                                                                                    
                                                                                                    
                                                                                                    
                                                                                                    
                                                                                                    
                                                                                                    
                           
<?xpacket end="w"?></metadata>
<defs>
    <style>
      .cls-1 {
        fill: #fff;
        fill-rule: evenodd;
      }
    </style>
  </defs>
  <path id="圆角矩形_1_拷贝_3" data-name="圆角矩形 1 拷贝 3" class="cls-1" d="M29,81h1a1,1,0,0,1,0,2H29A1,1,0,1,1,29,81Zm4,0H43a1,1,0,0,1,0,2H33A1,1,0,0,1,33,81Zm-4,5h1a1,1,0,1,1,0,2H29A1,1,0,1,1,29,86Zm4,0H43a1,1,0,1,1,0,2H33A1,1,0,0,1,33,86Zm-4,5h1a1,1,0,0,1,0,2H29A1,1,0,1,1,29,91Zm4,0H43a1,1,0,0,1,0,2H33A1,1,0,0,1,33,91Z" transform="translate(-28 -81)"/>
</svg>
