<svg t="1567748648422" class="icon" viewBox="0 0 1024 1024" version="1.1" xmlns="http://www.w3.org/2000/svg" p-id="3862" width="32" height="32"><path d="M716.8 281.6L512 166.4c-19.2-12.8-44.8-12.8-57.6 0L243.2 288c-19.2 12.8-32 32-32 51.2V576c0 25.6 12.8 44.8 32 51.2l211.2 121.6c19.2 12.8 44.8 12.8 57.6 0l211.2-121.6c19.2-12.8 32-32 32-51.2V332.8c-6.4-19.2-19.2-38.4-38.4-51.2zM448 608L307.2 473.6l51.2-51.2 83.2 83.2L608 339.2l51.2 51.2L448 608z" p-id="3863"></path><path d="M870.4 806.4L800 691.2c32-25.6 44.8-51.2 44.8-76.8V300.8c0-32-19.2-57.6-44.8-76.8L524.8 70.4c-19.2-12.8-25.6-19.2-44.8-19.2s-25.6 6.4-44.8 19.2L166.4 224c-32 12.8-51.2 44.8-51.2 76.8v313.6c0 32 19.2 57.6 44.8 76.8L89.6 806.4c-12.8 25.6 6.4 51.2 32 44.8l128-19.2 51.2 121.6c12.8 25.6 44.8 25.6 51.2 6.4l70.4-115.2 12.8 6.4c12.8 6.4 32 12.8 44.8 12.8s19.2 0 32-6.4l25.6-12.8L608 960c12.8 25.6 44.8 19.2 51.2-6.4L704 832l128 19.2c32 0 51.2-25.6 38.4-44.8z m-364.8 0c-12.8 6.4-38.4 12.8-51.2 0L185.6 652.8c-12.8-6.4-25.6-25.6-25.6-38.4V300.8c0-19.2 6.4-32 25.6-38.4l268.8-153.6C467.2 102.4 467.2 96 480 96c6.4 0 12.8 6.4 25.6 12.8l268.8 153.6c12.8 6.4 25.6 25.6 25.6 38.4v313.6c0 19.2-6.4 25.6-25.6 38.4L505.6 806.4z" p-id="3864"></path></svg>